<?xml version="1.0" encoding="UTF-8"?>
<!DOCTYPE svg PUBLIC "-//W3C//DTD SVG 1.1//EN" "http://www.w3.org/Graphics/SVG/1.1/DTD/svg11.dtd">
<svg xmlns="http://www.w3.org/2000/svg" version="1.1" width="371px" height="426px" style="shape-rendering:geometricPrecision; text-rendering:geometricPrecision; image-rendering:optimizeQuality; fill-rule:evenodd; clip-rule:evenodd" xmlns:xlink="http://www.w3.org/1999/xlink">
<g><path style="opacity:0.959" fill="#000000" d="M 65.5,218.5 C 63.1866,227.352 61.52,236.352 60.5,245.5C 49.1667,305.5 37.8333,365.5 26.5,425.5C 17.8333,425.5 9.16667,425.5 0.5,425.5C 26.9095,283.786 53.5762,142.119 80.5,0.5C 89.1667,0.5 97.8333,0.5 106.5,0.5C 93.3468,73.2659 79.6801,145.933 65.5,218.5 Z"/></g>
<g><path style="opacity:0.96" fill="#000000" d="M 160.5,199.5 C 151.213,201.624 141.879,203.624 132.5,205.5C 145.622,137.221 158.622,68.8878 171.5,0.5C 194.833,0.5 218.167,0.5 241.5,0.5C 241.5,8.5 241.5,16.5 241.5,24.5C 225.5,24.5 209.5,24.5 193.5,24.5C 182.372,82.8083 171.372,141.142 160.5,199.5 Z"/></g>
<g><path style="opacity:0.963" fill="#000000" d="M 368.5,425.5 C 359.833,425.5 351.167,425.5 342.5,425.5C 328.038,349.19 313.705,272.857 299.5,196.5C 298.619,189.261 297.286,182.094 295.5,175C 295.316,173.624 294.649,172.791 293.5,172.5C 288.587,139.692 282.587,107.026 275.5,74.5C 272.88,54.5655 269.547,34.7322 265.5,15C 264.961,11.969 264.294,8.96899 263.5,6C 263.164,4.97008 262.497,4.47008 261.5,4.5C 262.234,3.29208 262.567,1.95875 262.5,0.5C 271.167,0.5 279.833,0.5 288.5,0.5C 315.424,142.119 342.091,283.786 368.5,425.5 Z"/></g>
<g><path style="opacity:0.995" fill="#323e4f" d="M 261.5,4.5 C 262.497,4.47008 263.164,4.97008 263.5,6C 264.294,8.96899 264.961,11.969 265.5,15C 269.547,34.7322 272.88,54.5655 275.5,74.5C 268.312,109.277 261.645,144.277 255.5,179.5C 268.171,177.166 280.837,174.832 293.5,172.5C 294.649,172.791 295.316,173.624 295.5,175C 297.286,182.094 298.619,189.261 299.5,196.5C 282.935,200.213 266.268,203.546 249.5,206.5C 235.962,279.524 222.295,352.524 208.5,425.5C 199.833,425.5 191.167,425.5 182.5,425.5C 195.191,354.713 208.524,284.046 222.5,213.5C 200.24,217.151 177.906,221.484 155.5,226.5C 145.845,227.508 136.512,229.508 127.5,232.5C 105.14,236.705 82.8065,241.039 60.5,245.5C 61.52,236.352 63.1866,227.352 65.5,218.5C 87.8601,214.295 110.193,209.961 132.5,205.5C 141.879,203.624 151.213,201.624 160.5,199.5C 182.134,194.94 203.801,190.44 225.5,186C 226.428,185.612 227.095,184.945 227.5,184C 239.285,124.242 250.618,64.4089 261.5,4.5 Z"/></g>
<g><path style="opacity:0.966" fill="#000000" d="M 155.5,226.5 C 144.103,284.985 132.77,343.485 121.5,402C 135.496,402.5 149.496,402.667 163.5,402.5C 163.5,410.167 163.5,417.833 163.5,425.5C 139.5,425.5 115.5,425.5 91.5,425.5C 103.243,361.119 115.243,296.786 127.5,232.5C 136.512,229.508 145.845,227.508 155.5,226.5 Z"/></g>
</svg>
