<?xml version="1.0" encoding="UTF-8"?>
<!DOCTYPE svg PUBLIC "-//W3C//DTD SVG 1.1//EN" "http://www.w3.org/Graphics/SVG/1.1/DTD/svg11.dtd">
<svg xmlns="http://www.w3.org/2000/svg" version="1.1" width="371px" height="430px" style="shape-rendering:geometricPrecision; text-rendering:geometricPrecision; image-rendering:optimizeQuality; fill-rule:evenodd; clip-rule:evenodd" xmlns:xlink="http://www.w3.org/1999/xlink">
<g><path style="opacity:0.957" fill="#fefefe" d="M 68.5,219.5 C 67.8333,219.5 67.5,219.833 67.5,220.5C 64.9593,229.212 63.2926,238.212 62.5,247.5C 51.2952,307.524 39.9619,367.524 28.5,427.5C 19.8333,427.5 11.1667,427.5 2.5,427.5C 29.0381,285.476 55.7048,143.476 82.5,1.5C 91.5062,1.33356 100.506,1.50023 109.5,2C 95.2601,74.3676 81.5934,146.868 68.5,219.5 Z"/></g>
<g><path style="opacity:0.956" fill="#fefefe" d="M 162.5,200.5 C 153.789,203.245 144.789,205.245 135.5,206.5C 148.058,138.149 160.725,69.8161 173.5,1.5C 196.833,1.5 220.167,1.5 243.5,1.5C 243.5,9.5 243.5,17.5 243.5,25.5C 227.5,25.5 211.5,25.5 195.5,25.5C 184.628,83.8583 173.628,142.192 162.5,200.5 Z"/></g>
<g><path style="opacity:0.962" fill="#fefefe" d="M 264.5,1.5 C 273.167,1.5 281.833,1.5 290.5,1.5C 316.861,141.349 343.528,281.016 370.5,420.5C 370.5,422.833 370.5,425.167 370.5,427.5C 361.833,427.5 353.167,427.5 344.5,427.5C 330.295,351.143 315.962,274.81 301.5,198.5C 300.965,189.825 299.298,181.492 296.5,173.5C 290.167,139.5 283.833,105.5 277.5,71.5C 273.937,48.0182 269.604,24.6849 264.5,1.5 Z"/></g>
<g><path style="opacity:0.985" fill="#e1efd8" d="M 264.5,1.5 C 269.604,24.6849 273.937,48.0182 277.5,71.5C 270.335,107.163 263.335,142.996 256.5,179C 256.833,179.833 257.167,180.667 257.5,181.5C 270.395,178.321 283.395,175.654 296.5,173.5C 299.298,181.492 300.965,189.825 301.5,198.5C 284.452,201.576 267.452,204.91 250.5,208.5C 237.157,281.56 223.49,354.56 209.5,427.5C 200.833,427.5 192.167,427.5 183.5,427.5C 196.402,356.752 209.736,286.085 223.5,215.5C 222.833,215.167 222.167,214.833 221.5,214.5C 200.152,218.836 178.819,223.169 157.5,227.5C 147.978,228.862 138.645,230.862 129.5,233.5C 107.086,237.916 84.7524,242.583 62.5,247.5C 63.2926,238.212 64.9593,229.212 67.5,220.5C 68.1667,220.5 68.5,220.167 68.5,219.5C 90.8562,215.295 113.19,210.962 135.5,206.5C 144.789,205.245 153.789,203.245 162.5,200.5C 184.645,196.463 206.645,191.797 228.5,186.5C 240.268,124.665 252.268,62.9987 264.5,1.5 Z"/></g>
<g><path style="opacity:0.955" fill="#fefefe" d="M 157.5,227.5 C 146.07,286.08 135.07,344.747 124.5,403.5C 138.167,403.5 151.833,403.5 165.5,403.5C 165.5,411.5 165.5,419.5 165.5,427.5C 141.5,427.5 117.5,427.5 93.5,427.5C 105.371,362.811 117.371,298.144 129.5,233.5C 138.645,230.862 147.978,228.862 157.5,227.5 Z"/></g>
</svg>
